<?xml version="1.0" standalone="no"?>
<!DOCTYPE svg PUBLIC "-//W3C//DTD SVG 20010904//EN"
 "http://www.w3.org/TR/2001/REC-SVG-20010904/DTD/svg10.dtd">
<svg version="1.0" xmlns="http://www.w3.org/2000/svg"
 width="1500.000000pt" height="1500.000000pt" viewBox="0 0 1500.000000 1500.000000"
 preserveAspectRatio="xMidYMid meet">
<metadata>
Created by potrace 1.10, written by Peter Selinger 2001-2011
</metadata>
<g transform="translate(0.000000,1500.000000) scale(0.100000,-0.100000)"
fill="#000000" stroke="none">
<path d="M10174 12008 c-32 -22 -68 -49 -79 -59 -11 -10 -82 -45 -158 -78
-169 -74 -433 -218 -545 -297 -46 -32 -102 -71 -124 -86 -22 -15 -55 -40 -72
-55 -17 -16 -58 -47 -91 -70 -33 -22 -69 -51 -80 -63 -11 -12 -56 -50 -100
-85 -45 -35 -105 -89 -135 -122 -74 -80 -149 -139 -256 -203 -49 -29 -127 -81
-174 -115 -47 -33 -112 -78 -145 -98 -33 -21 -103 -67 -155 -102 -52 -36 -150
-102 -218 -148 -68 -45 -138 -94 -155 -108 -18 -15 -51 -36 -74 -48 -23 -11
-70 -40 -105 -64 -54 -38 -404 -217 -423 -217 -4 0 -39 -15 -78 -34 -40 -19
-124 -48 -187 -65 -63 -18 -151 -49 -195 -71 -200 -96 -433 -181 -545 -199
-42 -7 -90 -7 -135 -1 -104 14 -252 28 -420 40 -82 6 -280 22 -440 35 -159 14
-352 30 -428 35 -75 5 -177 14 -225 20 -48 7 -170 18 -272 25 -238 18 -418 32
-655 51 -104 8 -262 19 -350 25 -88 5 -214 16 -280 24 -66 8 -140 15 -166 15
-51 0 -73 16 -84 63 -4 15 -11 27 -15 27 -14 0 -79 -79 -94 -115 -8 -19 -28
-52 -45 -72 -16 -21 -40 -60 -52 -87 -13 -28 -52 -81 -87 -118 -62 -65 -65
-71 -71 -131 -4 -34 -12 -71 -18 -82 -23 -40 -94 -196 -108 -234 -7 -21 -27
-58 -44 -81 -29 -40 -31 -48 -29 -124 1 -54 6 -87 15 -97 8 -9 47 -27 86 -39
122 -37 186 -61 532 -195 88 -35 212 -79 275 -99 122 -39 258 -92 484 -188 76
-32 179 -70 229 -84 50 -15 127 -41 171 -59 45 -18 99 -38 121 -45 21 -7 60
-23 85 -36 25 -12 110 -45 190 -74 179 -62 209 -76 216 -95 19 -49 -46 -156
-104 -169 -15 -4 -121 -11 -237 -16 -115 -5 -295 -14 -400 -20 -104 -6 -293
-15 -420 -21 -126 -5 -306 -14 -400 -18 -165 -7 -198 -14 -224 -44 -25 -31
-89 -447 -73 -481 8 -18 254 -189 463 -322 178 -113 189 -122 189 -146 0 -12
-35 -73 -77 -136 -62 -91 -75 -117 -66 -130 16 -27 42 -26 98 3 68 34 111 32
108 -6 -1 -15 -11 -49 -24 -75 -34 -75 -129 -362 -129 -390 0 -31 30 -90 65
-126 38 -40 123 -101 174 -123 l44 -19 71 26 c39 14 100 38 135 53 54 23 66
25 77 13 12 -12 11 -25 -7 -88 -12 -41 -30 -100 -40 -130 -10 -30 -26 -91 -34
-135 -8 -44 -26 -118 -39 -165 -13 -47 -26 -97 -30 -111 -6 -29 -35 -66 -156
-201 -54 -60 -92 -113 -104 -144 -10 -27 -34 -81 -52 -120 -19 -39 -38 -93
-43 -120 -6 -27 -17 -76 -25 -108 -13 -48 -13 -64 -3 -85 22 -46 65 -40 228
31 222 98 247 113 324 197 150 162 193 190 415 267 52 18 162 56 243 84 82 28
155 49 164 46 20 -8 12 -51 -28 -154 -32 -85 -36 -129 -15 -170 22 -43 180
-190 221 -208 41 -17 92 -13 129 11 12 8 73 36 136 63 63 27 149 65 190 85
101 48 110 40 80 -69 -23 -84 -20 -123 8 -126 37 -3 57 3 82 26 14 12 45 35
70 49 25 15 57 36 71 48 37 29 62 13 134 -84 33 -45 77 -101 98 -124 22 -23
55 -65 75 -92 175 -236 221 -279 286 -267 18 4 74 20 124 36 50 16 133 37 184
46 75 14 98 23 120 45 l28 27 -5 219 c-3 120 -10 281 -15 358 -11 159 -23 454
-26 595 -1 52 -5 186 -9 297 -9 229 -7 236 65 273 81 42 74 50 219 -242 71
-145 143 -298 160 -340 17 -42 96 -208 176 -368 80 -161 155 -314 166 -342 10
-27 78 -169 150 -316 71 -146 148 -309 171 -361 22 -53 58 -132 79 -175 21
-44 39 -89 39 -100 0 -13 -22 -40 -55 -69 -30 -27 -55 -52 -55 -58 0 -25 89
11 125 51 29 33 51 41 123 50 51 7 72 15 101 39 20 17 72 49 116 71 44 22 122
62 173 90 51 27 105 50 120 50 35 0 64 21 134 96 37 39 94 82 162 122 74 45
110 73 125 98 26 44 27 80 1 94 -25 14 -35 49 -70 270 -36 223 -55 323 -69
370 -6 19 -11 53 -11 76 0 22 -14 110 -31 195 -17 85 -35 197 -40 249 -6 52
-16 120 -24 150 -15 59 -40 211 -50 300 -3 30 -12 87 -19 125 -24 123 -38 198
-51 285 -8 47 -25 148 -39 225 -39 212 -44 240 -61 375 -9 69 -23 152 -30 185
-7 33 -16 85 -20 115 -10 87 -45 282 -54 311 -5 14 -15 66 -22 116 -10 72 -10
98 0 134 7 24 17 67 23 94 27 136 83 326 119 400 15 33 32 85 37 115 35 209
201 681 283 802 21 31 61 103 89 160 54 111 100 196 173 325 26 45 58 106 72
135 32 66 83 154 113 196 13 17 41 71 64 119 36 78 64 126 149 254 13 21 58
80 101 132 95 118 221 300 242 352 10 22 29 56 45 75 52 66 163 274 308 576
24 52 58 148 77 221 36 138 43 156 105 248 69 101 52 121 -45 53z"/>
</g>
</svg>
